# xmcd
#
# Track frame offsets: 
#        150
#        12171
#        21833
#        34423
#        44715
#        57418
#        66517
#        77017
#        90813
#        102690
#        112873
#        125092
#        139223
#        150427
#        159477
#        171416
#        181453
#        193727
#        204328
#        216129
#        228436
#        237633
#
# Disc length: 3315 seconds
#
# Revision: 0
# Processed by: cddbd v1.5.2PL0 Copyright (c) Steve Scherf et al.
# Submitted via: ExactAudioCopy v1.1
#
DISCID=3c0cf116
DTITLE=Jim Reeves - CD04_Milestones Of A Country Legend
DYEAR=2017
DGENRE=Country
TTITLE0=Dark Moon 
TTITLE1=Oh, How I Miss You Tonight 
TTITLE2=Take Me in Your Arms and Hold Me
TTITLE3=I'm Getting Better 
TTITLE4=Almost
TTITLE5=You're Free to Go 
TTITLE6=You're ther Only Good Thing (That's Happened to Me)
TTITLE7=Have I Stayed Away Too Long
TTITLE8=No One To Cry To
TTITLE9=I Was Just Walkin' out the Door 
TTITLE10=Room Full of Roses
TTITLE11=We Could 
TTITLE12=According to My Heart
TTITLE13=Don't You Want to be My Girl (Poor Little Doll)
TTITLE14=Don't Tell Me
TTITLE15=You'll Never Be Mine Again
TTITLE16=I've Lived a Lot in My Time
TTITLE17=If You Were Mine
TTITLE18=Don't Ask me Why
TTITLE19=Stand at Your Window
TTITLE20=What Would You Do 
TTITLE21=I Can't Fly
EXTD=
EXTT0=
EXTT1=
EXTT2=
EXTT3=
EXTT4=
EXTT5=
EXTT6=
EXTT7=
EXTT8=
EXTT9=
EXTT10=
EXTT11=
EXTT12=
EXTT13=
EXTT14=
EXTT15=
EXTT16=
EXTT17=
EXTT18=
EXTT19=
EXTT20=
EXTT21=
PLAYORDER=
